<?xml version="1.0" encoding="utf-8"?>
<!-- Generator: Adobe Illustrator 24.3.0, SVG Export Plug-In . SVG Version: 6.00 Build 0)  -->
<svg version="1.1" id="Capa_1" xmlns="http://www.w3.org/2000/svg" xmlns:xlink="http://www.w3.org/1999/xlink" x="0px" y="0px"
	 viewBox="0 0 595.3 689.8" style="enable-background:new 0 0 595.3 689.8;" xml:space="preserve">
<style type="text/css">
	.st0{fill:url(#fondo_1_);}
	.st1{fill:#63DDC8;}
	.st2{fill:#009900;}
	.st3{fill:#CC0000;}
	.st4{fill:#333333;}
	.st5{fill:#ED6C43;}
	.st6{fill:#F9BDBF;}
	.st7{fill:#990000;}
	.st8{fill:#00CC00;}
	.st9{fill:#2D282E;}
	.st10{fill:#F39EA5;}
	.st11{fill:#FFC0C1;}
	.st12{fill:#FEC0C2;}
	.st13{fill:#AA5840;}
	.st14{fill:#6AD1C9;}
	.st15{fill:#AB5943;}
	.st16{fill:#FEC0C3;}
	.st17{fill:#FFFFFF;}
	.st18{fill:#072238;}
</style>
<image style="display:none;overflow:visible;enable-background:new    ;" width="737" height="772" xlink:href="6E802866.jpeg"  transform="matrix(0.8556 0 0 0.8556 -16.3081 56.7536)">
</image>
<linearGradient id="fondo_1_" gradientUnits="userSpaceOnUse" x1="328.4234" y1="186.7066" x2="397.3525" y2="576.0507" gradientTransform="matrix(1 0 0 -1 0 689.8898)">
	<stop  offset="0.5572" style="stop-color:#FFFFFF"/>
	<stop  offset="0.9716" style="stop-color:#333333"/>
</linearGradient>
<path id="fondo" class="st0" d="M198.1,272.2c0,0,7.9-15.8,25.2-7.9c17.3,7.9,15.8,27.4,15.8,27.4s-13.7,79.2-41,99.4
	s16.6-7.2,16.6-7.2l15.8-22.3c0,0,26.6-23.8,31.7-105.1s140.4-97.9,140.4-97.9s119.5-5.8,142.6,87.8S533.6,387,533.6,387
	s-33.8,89.6-127.4,86.8s-252-77-252-77l20.9-45.4C175,351.4,202.4,315.4,198.1,272.2z"/>
<circle class="st1" cx="318.6" cy="265.4" r="36.5"/>
<circle class="st1" cx="116.5" cy="252.4" r="36.5"/>
<path class="st2" d="M521.4,202.6c0,0,32.6,41.3,29.8,62.4c0,0-12.8-20.6-14.8-15.8c-2,4.8,15,20.6,15,20.6s6.5,13,2.2,17.8
	c-4.3,4.8-11.5,0-11.5,0l-14.9-26.9c0,0-5.8-2.9-2.4,14.4s1,35.5,1,35.5s-15.5,17.3-13.9,9.6c1-4.8,2.9-41.8,2.9-41.8
	s0-12.5-5.3-10.6s0,47.5,0,47.5s-7.7,13.5-17.3,6.8c0,0-1.4-42.8,3.8-45.2s-8.6-16.3-9.1-1.4c-0.5,14.9,0,27.8,0,27.8
	s-2.4,24-9.6,24.5s-14.4,0-14.4,0s13-24,13-29.3s-1-13.9-2.4-13.9s-5.8,16.3-5.8,16.3l-4.8,19.2c0,0-8.2,11.5-13,7.9
	c-4.8-3.6,5.8-18.5,5.8-18.5s-0.1-6.2-7-1.4S433,323.5,433,323.5l13.9-40.3l7.7-6.7l-13.9-1l-5.3-21.1c0,0,27.8-5.8,43.7,1
	c0,0,11-8.2-3.8-11c-14.9-2.9-37.9-4.3-42.2,2.9c-4.3,7.2-7.2-9.1-7.2-9.1s13-18.2,24.5-15.4c11.5,2.9,25.9,10.1,25.9,10.1
	s12.5,4.8,7.7-8.2c-4.8-13-36.5-8.2-36.5-8.2s-11-9.1,17.3-19.4c0,0,18.2-1.7,33.1,19.4c0,0,5.8-1.9,1.4-9.6
	c-4.3-7.7-21.1-14.9-21.1-14.9s13-12.8,22.1-3.8s14.4,24.9,14.4,24.9S521.8,215.5,521.4,202.6z"/>
<circle class="st3" cx="162.8" cy="336.6" r="35.8"/>
<path id="planta" class="st3" d="M518.8,273.2c0,0,18.4-11.2,26.3-10.4l7.2,8.3c0,0,16.9,111.2-71.6,181.4c0,0-10.8-1.8,22.3-43.2
	c0,0,5.8-17.3-34.6,22.7l-12.7-24.5c0,0,26-33.5,60.2-38.5c0,0,12.2-13.3-7.6-11.3s-51.1,32.2-51.1,32.2s-16.6-27.7,13.7-42.5
	c0,0,27-3.2,32.2-1.1c5.2,2.2,8.5-9.7,8.5-9.7s-1.1-9.7-50.4,6.1c0,0-5-33.8,27.4-35.6l28.1,8.3c0,0,10.8,0.7,6.8-5.8
	c-4-6.5-43.2-9-43.2-9s6.1-15.5,22.9-19.1c16.7-3.6,30.8,21.2,30.8,21.2S552.7,294.5,518.8,273.2z"/>
<path class="st4" d="M471.1,283.8c2.1-87.3-85.6-95.2-85.6-95.2H187.1c-2.5-2.4-74.4,7.9-85.6,95.8c-1.5,72.1,46.2,94.7,46.2,94.7
	c-18.6,24.1-47.7,36.1-41.7,139.8c21.4,110.4,99.2,133,99.2,133h162.3c51.8-20.3,85.6-55.2,99.1-131.9
	c13.5-76.6-39.4-140.9-39.4-140.9S473.1,357.6,471.1,283.8z M154.8,499.5C109,359,258.4,339.5,300.7,351.8
	C158.1,373.2,154.8,499.5,154.8,499.5z M389.9,348.6c-72.1-45.3-140.6-41.8-206.2,0c0,0-34.9-10.2-34.9-57.5s46.2-57.5,46.2-57.5
	H382c12.4,1.1,47.3,20.3,46.2,59.7C427.1,332.8,389.9,348.6,389.9,348.6z"/>
<g id="per1">
	<path id="pelo" class="st5" d="M252.3,137.5c0,0-27.6-6.7-15.6-22.6c0,0,45.6-10.1,58.1-11c0,0,5.3-0.7,6.2,14.4
		s-25.9,20.9-25.9,20.9L252.3,137.5z"/>
	<path id="mano" class="st6" d="M305.1,93.1c0,0,12.7-4.1,16.3,0s-1.9,7.7-1.9,7.7H315l0.5,3.1l-11.8-6.3L305.1,93.1z"/>
	<path id="cara" class="st6" d="M274.4,128.2l7.7-6.2c0,0-0.7-7.4,3.4-3.8l12.2-2.2c0,0,0,19-11.6,15.6l-3.9,6l-9.9-2.6L274.4,128.2
		z"/>
	<g id="pant">
		<path class="st7" d="M236.7,170.2l34.6,2.6l57.1,14.9c0,0,25.7-2.2,24.7,3.4s-4.8,6-4.8,6l-137-7.2
			C211.3,189.8,206.7,180.5,236.7,170.2z"/>
		<path class="st3" d="M216.1,197.8c0,0-9.1-3.1-6.7-11.8s11.8-7.2,11.8-7.2s39.8,5.2,46.3,9.4s-4.1,7.6-4.1,7.6L216.1,197.8z"/>
	</g>
	<g id="tors">
		<path class="st2" d="M305.1,100.1v-8.6h-25.9c0,0-20.9,3.4-27.8,47.8l26.9,18l-7,15.6l13.9,3.6c0,0,7.1-6,6.6-11.3
			c0,0,8.9-24.7-9.6-29c0,0-7.9,0.5-7.7-7.9S280.9,103,305.1,100.1z"/>
		<path class="st8" d="M236.7,170.2c0,0,1.2-38.2,38.2-41c0,0,1.5,8.2,7.2,7v18.2c0,0-13.6,16.8-12.5,18.4
			C270.6,174.2,236.7,170.2,236.7,170.2z"/>
	</g>
</g>
<g id="per2">
	<polygon class="st9" points="96.3,459.7 96.3,456.8 145.5,471.8 143.6,476 	"/>
	<g id="tren_infe">
		<path id="pierna2" class="st10" d="M91,663h6c0,0,13-39.8,5.5-93.4H74C74,569.6,85.5,658.4,91,663z"/>
		<polygon id="zapato" class="st4" points="91,663 97,663 108.3,669.7 108.3,670.9 91,670.9 		"/>
		<polygon id="zapato_1_" class="st4" points="54.8,663 60.8,663 72.1,669.7 72.1,670.9 54.8,670.9 		"/>
		<path id="pierna1" class="st11" d="M54.8,570.8l31.7,1.4c0,0-16.3,81.1-26.4,91.9h-5.3C54.8,664.2,49.5,568.4,54.8,570.8z"/>
	</g>
	<g id="pants">
		<path class="st7" d="M96.5,522.6c0,0,10.3,45.8,6.4,49.7c-3.9,3.8-18.6-1.3-18.6-1.5c0-0.2,7-48.2,7-48.2H96.5z"/>
		<path class="st3" d="M91.3,522.6H56.5c0,0-7,46.2-2.9,48.2c4.1,2,32.9,0.8,32.9,0.8L91.3,522.6z"/>
	</g>
	<path class="st12" d="M29.3,457.8l8.2-2.6l2.6,8.4l-2.9,3.6l8.9,22.1l3.1-2.2l19.2,0.6l4.3-34.5l15.1-1.7L86.7,476l4.6,12.4
		l9.6,0.3l2.9,4.1l11.9-22.1l-2.2-5.3l2.2-4.6l9.6,4.3l-3.6,8.8c0,0-5.9,49.6-17.9,43.8s-26.4-17-26.4-17l-18.7,4.8
		c0,0-7.9,8.4-15.1,6.2c-7.2-2.2-9.1-12.2-9.1-12.2l-2.6-33.1L29.3,457.8z"/>
	<path id="remera" class="st1" d="M56.5,522.6h40.1c0,0,9.7-24.9,4.3-33.8c-0.7-1.2-4.8-14.4-16.6-14.2c0,0-7.5,6-12.5-1.2
		c-5-7.2-21.3,12.7-21.3,12.7l6.2,20.9l1.9-1.4C58.6,505.6,55.5,514.9,56.5,522.6z"/>
	<path class="st13" d="M77.8,455.9c0,0,3.4-5.3,11-2.9c0,0,5-3.8-1-7.7H71.8c0,0-11,18.5,2.2,22.6l2.5-6.5v11.8c0,0,10.7,2.2,11.2,0
		s3.6-6.2,2.2-7.9c-1.4-1.7-10.7-1-10.7-1L77.8,455.9z"/>
	<g id="mancuernas">
		<polygon class="st9" points="8.9,462.1 59.3,453.2 59.3,456.1 8.9,466.7 		"/>
		<polygon class="st3" points="23.8,476 31,474.1 25.3,445.3 17.8,447.7 		"/>
		<polygon class="st3" points="43.3,472.2 50.5,470.3 44.7,441.5 37.3,443.9 		"/>
		<polygon class="st3" points="130.5,484 123.3,482 129.1,453.2 136.5,455.6 		"/>
		<polygon class="st3" points="112,477.8 104.8,475.9 110.6,447.1 118,449.5 		"/>
		<polygon class="st7" points="105.3,471.8 100.1,470.4 104.2,449.6 109.6,451.3 		"/>
		<polygon class="st7" points="136.9,481.9 131.7,480.5 135.9,459.7 141.3,461.5 		"/>
		<polygon class="st7" points="51.1,468.6 57.1,467 52.3,443.3 46.2,445.3 		"/>
		<polygon class="st7" points="17.3,475.1 23.3,473.5 18.5,449.8 12.4,451.8 		"/>
	</g>
</g>
<g id="per3">
	<path id="pantalones" class="st14" d="M324.8,635l28.1,2.9c0,0,16.2,9.4,25.9,10.4c0,0,10.1,15.8-9.4,22.7
		c-19.4,6.8-55.8-2.9-55.8-2.9s-20.4-9-14.7-18.4S324.8,635,324.8,635z"/>
	<path class="st15" d="M331.1,584.5c0,0-5.4-12.6,1.8-18.5c7.2-5.9,11.2-4.5,11.2-4.5s10.6-8.5,15.5-7.9c4.9,0.5,10.6,0.9,10.6,13.1
		s14.2,23.8,14.2,23.8s14.4,20.2,1.3,28.1c-13.1,7.9-25.5-5.8-25.5-5.8s-3.9-23.8-1.9-34s2.5-14.4-6.7-17.3l-1.4,1.8
		c0,0,5.9,4.9,5.7,7.2c-0.3,2.3,3,15.3-9.1,18.7S331.1,584.5,331.1,584.5z"/>
	<path class="st16" d="M337.2,592.7v-3.2H332V572c0,0,0.7-2.5,3.6-1.6s8.8,11.1,8.8,11.1v11.3H337.2z"/>
	<path class="st17" d="M332.2,565.7h1.6c0,0,2.2-3.6,5.1-1.8c3,1.8,4.1,3.6,4.1,3.6l2.3,6.3c0,0-4.7,2.9-3.4,6.5
		c1.3,3.6,4.1,4.1,4.1,4.1s5,0.9,5.9-4.9s-3.1-4.7-3.1-4.7s-1.8-14-10-14C330.7,560.9,332.2,565.7,332.2,565.7z"/>
	<g id="remera_1_">
		<path class="st7" d="M300.7,558h8.6l6.1,21.6l18.7,13h13.7l22.3-13.7l7.2-20.9l7.9-1.8c0,0,15.8,42.8-29.5,56.5l-33.1-2.9
			C322.6,609.8,288.8,601.2,300.7,558z"/>
		<path class="st3" d="M336,592.7c0,0,4.5,3.1,10.4,0.7l9.2,18.2c0,0,1.4,27.3-2.1,26.6c-3.5-0.6-28.7-3.2-28.7-3.2s2.5-13.1,2-13.7
			c-0.5-0.5-7.6-2.7-3.4-13.1L336,592.7z"/>
	</g>
	<g id="Mancuernas_y_manos">
		<polygon class="st4" points="280,552.1 330.4,550.8 330.4,546.3 280,547.4 		"/>
		<polygon class="st4" points="355.8,551.1 406.2,549.8 406.2,545.3 355.8,546.4 		"/>
		<polygon class="st16" points="301.4,558 301.4,546.7 309.1,546.7 309.1,552.3 311.1,552.3 311.1,556.2 307.9,558 		"/>
		<path class="st16" d="M378.6,545.4c0.7,0,8.5,1.3,8.5,1.3l-0.9,9.5l-7.6,1.5v-4.2l-2.9-1.2v-2.2l2.5-0.5L378.6,545.4z"/>
		<polygon class="st7" points="289.7,563.2 298.1,563.2 297.4,535.1 289.5,535.1 		"/>
		<polygon class="st7" points="312.8,563.2 321.3,563.2 320.6,535.1 312.6,535.1 		"/>
		<polygon class="st7" points="367.3,562.2 375.7,562.2 375,534.2 367.1,534.2 		"/>
		<polygon class="st7" points="388.7,562.2 397.2,562.2 396.4,534.2 388.5,534.2 		"/>
		<polygon class="st3" points="397.3,558.7 403.6,558.7 403.1,537.7 397.2,537.7 		"/>
		<polygon class="st3" points="360.8,558.7 367.1,558.7 366.6,537.7 360.6,537.7 		"/>
		<polygon class="st3" points="321.4,558.7 327.8,558.7 327.2,537.7 321.3,537.7 		"/>
		<polygon class="st3" points="283.2,559.7 289.5,559.7 289,538.7 283,538.7 		"/>
	</g>
</g>
<path class="st12" d="M455,508l-42.4,0c-4.1,0.1-7.2-0.7-8.8-5c0,0-2.5-4.8-2.4-7.7s-1.9-3.6-3-0.6c3.9,7.8,0.1,17.2,2.1,17
	c2-0.1,8.2,2.9,8.2,2.9l46.2,6.8V508z"/>
<g id="per4">
	<g id="ten_inf">
		<path class="st3" d="M505.7,666.7c0,0-1-83.7,2.4-85.3s-25-32.3-25-32.3L472.6,595c0,0,6.2,68.1,16.3,71.7
			C499,670.2,505.7,666.7,505.7,666.7z"/>
		<path class="st7" d="M483.1,547.9c0,0,28.8-7,34.1-14c5.3-7,69.4,128.8,69.4,128.8c-4.3,3.1-11.1,4.3-21.1,3.1L483.1,547.9z"/>
		<polygon id="zapato_2_" class="st4" points="504.7,668.3 498.7,668.3 487.5,675 487.5,676.2 504.7,676.2 		"/>
		<polygon id="zapato_3_" class="st4" points="583.9,666.2 577.9,666.2 566.7,672.9 566.7,674.1 583.9,674.1 		"/>
	</g>
	
		<ellipse transform="matrix(0.9475 -0.3197 0.3197 0.9475 -130.7307 176.611)" class="st12" cx="472.6" cy="486.5" rx="11.3" ry="15.8"/>
	<path class="st1" d="M451.5,507.4c0,0,34.4-5.3,38.9-15.8c2.5,4.7,24.9,30,26.9,42.2c2.2,14.1-34.1,15.3-34.1,15.3l-10.6-23
		c0,0-4.4,4.8-21.1-2.4C451.5,523.8,454.4,508.4,451.5,507.4z"/>
	<path class="st18" d="M472.6,477.1l-8.6,4.1c0,0-6.3-1.1-2-7.8s15.4-3.3,15.4-3.3s14.4,1.4,5.8,21.5
		C477.4,487.5,473.4,482.8,472.6,477.1z"/>
</g>
</svg>
