<?xml version="1.0" encoding="utf-8"?>
<!-- Generator: Adobe Illustrator 24.3.0, SVG Export Plug-In . SVG Version: 6.00 Build 0)  -->
<svg version="1.1" id="Capa_1" xmlns="http://www.w3.org/2000/svg" xmlns:xlink="http://www.w3.org/1999/xlink" x="0px" y="0px"
	 viewBox="0 0 595.3 603.4" style="enable-background:new 0 0 595.3 603.4;" xml:space="preserve">
<style type="text/css">
	.st0{fill:#F6F6F6;}
	.st1{fill:#333333;}
	.st2{fill:#CC0000;}
	.st3{fill:#66FFFF;}
	.st4{fill:#F38681;}
	.st5{fill:#4F5065;}
	.st6{fill:#FD9D96;}
	.st7{fill:#990000;}
	.st8{fill:#FBD640;}
</style>
<g>
	<g id="fondo">
		<path class="st0" d="M279,92.6c0,0-185.9-56.7-227.5,115s255.9,179.2,255.9,179.2s235-74.8,246.7-151.6
			c11.7-76.8-60.8-107.6-60.8-107.6S411.5,172.2,279,92.6z"/>
		<path class="st0" d="M27.2,444.3c0,0,158.4-55,237.5-41.7s233.4,31.6,233.4,31.6s62.5-6.6,72.5,20.9s-90,39.2-90,39.2
			s-53.3,8.3-62.5,23.3s-232.5,23.3-285.9-13.3c-53.3-36.7-90.8-31.7-90.8-31.7S14.7,467.7,27.2,444.3z"/>
	</g>
	<g id="Reloj">
		<rect x="166.2" y="182.4" class="st1" width="6.8" height="2.5"/>
		<path class="st2" d="M136.4,133.5c-26.2,0-47.5,21.3-47.5,47.5s21.3,47.5,47.5,47.5s47.5-21.3,47.5-47.5
			C183.9,154.7,162.7,133.5,136.4,133.5z M136.4,222.8c-21.5,0-39-18.1-39-40.4s17.5-40.4,39-40.4s39,18.1,39,40.4
			S158,222.8,136.4,222.8z"/>
		<rect x="134.1" y="146.6" class="st1" width="2.3" height="38.3"/>
		<rect x="134.1" y="182.4" class="st1" width="21" height="2.5"/>
		<rect x="99.1" y="182.4" class="st1" width="6.8" height="2.5"/>
		<rect x="134" y="213.3" class="st1" width="2.5" height="6.8"/>
	</g>
	<path class="st1" d="M140.6,446.8c0,0,5,9.2,14.6,0l17.8,23.3c0,0-4.9,15-17.8,4.2c0,0-13.5-2.7-18.6-11.8S140.6,446.8,140.6,446.8
		z"/>
	<path class="st1" d="M188.4,436.9c0,0-7.8,12.2-5.3,16.6c2.5,4.4,41.9,9.1,43.8,3.8s0-7.2,0-7.2L205.2,437
		C205.2,436.9,196.9,442.9,188.4,436.9z"/>
	<path class="st2" d="M111,328.1c0,0-5,8.8,0,18.8s25.4,34.6,25.4,34.6l32.1,1.7c0,0,0.8,2.9,2.5-1.7s2-7.5,2-7.5l18.4,10.1l3.8-1.8
		l25-14.6c0,0-20.2-24.2-37.6-27.1C182.6,340.6,152.7,371.4,111,328.1z"/>
	<path class="st3" d="M111,328.1c0,0,40-65,82.5-56.3c0,0,3.8,15.8,9.6,14.6c5.8-1.3,10.4-5.4,10.4-5.4s12.1,2.5,12.1,14.2
		s5.4,32.9,5.4,32.9s-12.5,10.4-20.8,0l-3.3-11.3l-24.2,23.8C182.6,340.6,154.3,371.8,111,328.1z"/>
	<path class="st4" d="M139.3,448h16.8l11.6-65.3v-5c0,0-8.1-5.8-28.4,0L139.3,448L139.3,448z"/>
	<path class="st4" d="M187.3,438.5l8.8,5.4l8.3-5.4l15.8-59.2c0,0,5.4-7.9-7.1-16.7c-12.5-8.8-19.6,10.4-19.6,10.4l3.3,3.8
		L187.3,438.5z"/>
	<ellipse class="st1" cx="268" cy="404.8" rx="40.4" ry="42.1"/>
	<path d="M266,402.1c0,0,8.8,4.9,0,9.4L108.8,426v-7.6L266,402.1z"/>
	<path class="st4" d="M124.8,427.7c0,0,8.3-7.9,5.4-14.2c-2.9-6.3-2.4-10-2.4-10l5.3-5l2.1-53.8l16.3-32.1c0,0,8.3,14.2,16.3,9.6
		L152,351.8l-5.6,57.1c0,0,6.5,10.4-4,17.1S124.8,427.7,124.8,427.7z"/>
	<path class="st4" d="M212.7,330.6c0,0,12.9,5,16.3-2.5l5,23.8v46.2l2.9,15.8c0,0-3.3,6.7-15.8,3.8l-6.3-9.6l4.2-8.3
		c0,0,4.6-47.5-0.4-50C213.5,347.2,212.7,330.6,212.7,330.6z"/>
	<path class="st5" d="M233.5,262H204c0,0-4.2,4.4-12.5-8.5c0,0-2.1-3.8,3.3-7.5c5.4-3.8-12.9-7.9,6.3-14.6c0,0-4.6-12.9,15.4-7.1
		c0,0,10.4-10.4,17.1,5c0,0,18.4,2.3,5,17.5C238.5,246.8,241,262,233.5,262z"/>
	<path class="st4" d="M191.4,271l6.7,24.2l16.3-12.1l-5.4-5.9l3.8-4.2c0,0,16.7,14.2,18.3-2.1c0,0,6.7-20.9,3.3-25
		c-3.3-4.2-18.8-2.1-18.8-2.1l-5,7.9l-5.5-0.8c0,0-0.9-1.3-0.8,5.8C204.4,263.9,202.3,277.3,191.4,271z"/>
	<ellipse class="st1" cx="218.6" cy="256.3" rx="2.1" ry="2.4"/>
	<ellipse class="st1" cx="230.5" cy="257.4" rx="2.1" ry="2.4"/>
	<rect x="216.2" y="251.1" class="st1" width="5" height="1.5"/>
	<rect x="228" y="252.6" class="st1" width="5.3" height="1.9"/>
	<rect x="218.7" y="268.3" class="st1" width="3.5" height="3.5"/>
	<ellipse class="st1" cx="68.4" cy="426" rx="40.4" ry="42.1"/>
	<path d="M64.1,432.1L42.7,433c-1.9,0.1-3.6-1.4-3.7-3.4l0-2.5c-0.1-1.9,1.4-3.6,3.4-3.7l21.4-0.9c1.9-0.1,3.6,1.4,3.7,3.4l0.1,2.5
		C67.6,430.4,66.1,432,64.1,432.1z"/>
	<path class="st1" d="M466.8,159.1H331.7c-10.7,0-19.4,9.4-19.4,20.8v267.4c0,11.4,8.8,20.8,19.4,20.8h135.2
		c10.7,0,19.4-9.4,19.4-20.8V179.9C486.3,168.4,477.5,159.1,466.8,159.1z M477.5,423.2c0,11.4-8.8,20.8-19.4,20.8H338.9
		c-10.7,0-19.4-9.4-19.4-20.8V192.4c0-11.4,8.8-20.8,19.4-20.8h119.2c10.7,0,19.4,9.4,19.4,20.8L477.5,423.2L477.5,423.2z"/>
	<path class="st2" d="M329,446.8c-2.9,4-2.6,8.3,0,12.8c19.1-3,30.8-6.9,39.2-11.3l-3.3-11.3h-16.3L329,446.8z"/>
	<path class="st2" d="M393.5,459.7c-3.5,3.5-3.8,7.8-1.8,12.7c19.3-0.2,31.5-2.5,40.4-5.7l-1.7-11.7l-16.1-2.3L393.5,459.7z"/>
	<path class="st1" d="M345,436.9h19.8c0,0,6.5-54.6,5.8-65.9c-0.6-11.3,32.5-26.9,32.5-26.9l8.2,108.6l20.8,2.7
		c0,0,3.5-100,6.7-111.3c3.1-11.3,7.5-25.6-2.5-42.5c0,0-28.1,14.4-48.1,0c-12.3,1.8-37.2,39.6-37.5,49.8
		C350.6,351.4,339.4,366,345,436.9z"/>
	<path class="st6" d="M362.2,246.6L366,261c0,0-10,6.6-13.8,6.3c-3.8-0.3-12.8,3.1-13.8-25c-0.9-28.1,6.6-40,6.6-40l-1.6-15.9
		c0,0,5-7.5,15.6-5s6.9,10.6,6.9,10.6l-6.3,11.6l-4.1-1.3l-1.6,44.7L362.2,246.6z"/>
	<path class="st7" d="M388.1,301.6c0,0,35.8,37.2,48.1,0c1.9-5.6-7.5-10.3,9.4-41.7s-9.4-37-9.4-37h-17.8c0,0-3.8,6.9-10.9,2.5
		l-14.6,1.6l-32.3,18.4l5.9,16.3l22.2-6.9L388.1,301.6z"/>
	<path class="st6" d="M419,253.4l-18,17.1c0,0-6.8,1.7-10.1-4.5s-14.2-22.6-14.2-22.6l-3.3-15.3c0,0-12.4-5.2-12.7,7.7
		c-0.3,12.9,6.7,11.1,6.7,11.1s15.1,35.8,20.6,36.2c5.4,0.3,7.3,11.8,20.9,0s16.6-13.6,16.6-13.6S419.6,259.3,419,253.4z"/>
	<path class="st8" d="M413.8,212.5c0,0,16.3-4.8,14.1-31.8c0,0,0.6-8.6-34.9-19.5c0,0-19.5-3.4-16.7,16.6s36.3,19.4,36.3,19.4
		L413.8,212.5z"/>
	<path class="st6" d="M419.1,225.7l-2.8-15l-2.2-3.1c0,0,4.7-0.3,5-9.1c0.3-8.8-6.3,0-6.3,0s-0.3-7.2-5-7.2s-17.8,0-17.8,0l3,22.5
		c0,0,1.4,8.3,13,5.9l1.9,7.2C407.8,226.9,414.7,231,419.1,225.7z"/>
	<ellipse class="st1" cx="394" cy="201" rx="1.9" ry="2.5"/>
	<ellipse class="st1" cx="405.4" cy="201" rx="1.9" ry="2.5"/>
	<rect x="391.7" y="195.4" class="st1" width="5.5" height="1.3"/>
	<rect x="402.7" y="195.4" class="st1" width="5.5" height="1.3"/>
	<circle class="st1" cx="400.2" cy="212.9" r="2.1"/>
</g>
</svg>
