<?xml version="1.0" encoding="utf-8"?>
<!-- Generator: Adobe Illustrator 25.3.0, SVG Export Plug-In . SVG Version: 6.00 Build 0)  -->
<svg version="1.1" id="Capa_1" xmlns="http://www.w3.org/2000/svg" xmlns:xlink="http://www.w3.org/1999/xlink" x="0px" y="0px"
	 viewBox="0 0 435.57 406.86" style="enable-background:new 0 0 435.57 406.86;" xml:space="preserve">
<style type="text/css">
	.st0{fill:#333333;}
	.st1{fill:#CC0000;}
</style>
<g>
	<path class="st0" d="M296.94,40.92c0.89-37.41-36.68-40.79-36.68-40.79H175.3c-1.06-1.03-31.86,3.38-36.68,41.03
		c-0.66,30.9,19.79,40.55,19.79,40.55c-7.96,10.33-20.45,15.45-17.86,59.86c9.17,47.3,42.48,56.96,42.48,56.96h69.51
		c22.2-8.69,36.68-23.66,42.47-56.48c5.8-32.82-16.89-60.34-16.89-60.34S297.83,72.54,296.94,40.92z M161.45,133.31
		c-19.58-60.15,44.39-68.54,62.51-63.24C162.9,79.24,161.45,133.31,161.45,133.31z M262.19,68.68c-30.89-19.42-60.23-17.92-88.33,0
		c0,0-14.97-4.35-14.97-24.62c0-20.27,19.79-24.62,19.79-24.62h80.13c5.31,0.48,20.27,8.69,19.79,25.59
		C278.12,61.92,262.19,68.68,262.19,68.68z"/>
	<g id="pilar_der">
		<rect x="29.69" y="72.29" class="st1" width="36.2" height="334.51"/>
		
			<rect x="31.5" y="339.1" transform="matrix(6.123234e-17 -1 1 6.123234e-17 -339.1006 438.2965)" class="st1" width="36.2" height="99.2"/>
		
			<rect x="61.18" y="40.79" transform="matrix(6.123234e-17 -1 1 6.123234e-17 -11.1023 169.671)" class="st1" width="36.2" height="99.2"/>
	</g>
	<g id="pilar_izq">
		
			<rect x="369.69" y="72.29" transform="matrix(-1 -1.224647e-16 1.224647e-16 -1 775.5734 479.0852)" class="st1" width="36.2" height="334.51"/>
		
			<rect x="367.88" y="339.1" transform="matrix(6.123234e-17 -1 1 6.123234e-17 -2.722 774.6751)" class="st1" width="36.2" height="99.2"/>
		
			<rect x="338.19" y="40.79" transform="matrix(6.123234e-17 -1 1 6.123234e-17 265.9035 446.6768)" class="st1" width="36.2" height="99.2"/>
	</g>
	<g id="T">
		<rect x="200.65" y="203.4" class="st1" width="36.2" height="203.46"/>
		
			<rect x="200.65" y="132.6" transform="matrix(6.123234e-17 -1 1 6.123234e-17 -2.7498 440.2531)" class="st1" width="36.2" height="177.81"/>
		
			<rect x="200.65" y="339.16" transform="matrix(6.123234e-17 -1 1 6.123234e-17 -170.0072 607.5105)" class="st1" width="36.2" height="99.2"/>
		
			<rect x="208.74" y="73.95" transform="matrix(6.123234e-17 -1 1 6.123234e-17 5.3365 430.238)" class="st1" width="18.1" height="277.01"/>
	</g>
</g>
</svg>
